# AST/ASF file generated using VICON BodyLanguage
# -----------------------------------------------
:version 1.10
:name VICON
:units
  mass 1.0
  length 0.45
  angle deg
:documentation
   .ast/.asf automatically generated from VICON data using
   VICON BodyBuilder and BodyLanguage model FoxedUp or BRILLIANT.MOD
:root
   order TX TY TZ RX RY RZ
   axis XYZ
   position 0 0 0  
   orientation 0 0 0 
:bonedata
  begin
     id 1 
     name lhipjoint
     direction 0.710188 -0.616876 0.339259 
     length 2.5669 
     axis 0 0 0  XYZ
  end
  begin
     id 2 
     name lfemur
     direction 0.34202 -0.939693 0  
     length 7.12796  
     axis 0 0 20  XYZ
    dof rx ry rz
    limits (-160.0 20.0)
           (-70.0 70.0)
           (-60.0 70.0)
  end
  begin
     id 3 
     name ltibia
     direction 0.34202 -0.939693 0   
     length 7.58108   
     axis 0 0 20   XYZ
    dof rx
    limits (-10.0 170.0)
  end
  begin
     id 4 
     name lfoot
     direction 0.0669471 -0.183936 0.980656   
     length 2.17365   
     axis -90 7.62852e-016 20   XYZ
    dof rx rz
    limits (-45.0 90.0)
           (-70.0 20.0)
  end
  begin
     id 5 
     name ltoes
     direction 1.53508e-011 -4.21705e-011 1   
     length 1.09427   
     axis -90 7.62852e-016 20   XYZ
    dof rx
    limits (-90.0 20.0)
  end
  begin
     id 6 
     name rhipjoint
     direction -0.700191 -0.625589 0.34405   
     length 2.53115  
     axis 0 0 0  XYZ 
  end
  begin
     id 7 
     name rfemur
     direction -0.34202 -0.939693 0   
     length 7.33006   
     axis 0 0 -20   XYZ
    dof rx ry rz
    limits (-160.0 20.0)
           (-70.0 70.0)
           (-70.0 60.0)
  end
  begin
     id 8 
     name rtibia
     direction -0.34202 -0.939693 0   
     length 7.64926   
     axis 0 0 -20   XYZ
    dof rx
    limits (-10.0 170.0)
 end
 begin
     id 9 
     name rfoot
     direction -0.0688927 -0.189281 0.979503   
     length 2.20493  
     axis -90 -7.62852e-016 -20   XYZ
    dof rx rz
    limits (-45.0 90.0)
           (-20.0 70.0)
  end
  begin
     id 10 
     name rtoes
     direction -1.53567e-011 -4.21933e-011 1   
     length 1.10919   
     axis -90 -7.62852e-016 -20   XYZ
    dof rx
    limits (-90.0 20.0)
  end
  begin
     id 11 
     name lowerback
     direction -0.0167868 0.989873 -0.140959   
     length 2.14596   
     axis 0 0 0   XYZ
    dof rx ry rz
    limits (-20.0 45.0)
           (-30.0 30.0)
           (-30.0 30.0)
  end
  begin
     id 12 
     name upperback
     direction 0.0129109 0.998033 0.0613525   
     length 2.10457   
     axis 0 0 0   XYZ
    dof rx ry rz
    limits (-20.0 45.0)
           (-30.0 30.0)
           (-30.0 30.0)
  end
  begin
     id 13 
     name thorax
     direction 0.0177047 0.991119 0.131797   
     length 2.17652   
     axis 0 0 0   XYZ
    dof rx ry rz
    limits (-20.0 45.0)
           (-30.0 30.0)
           (-30.0 30.0)
  end
  begin
     id 14 
     name lowerneck
     direction -0.0336893 0.997548 0.0613464   
     length 1.8912   
     axis 0 0 0   XYZ
    dof rx ry rz
    limits (-20.0 45.0)
           (-30.0 30.0)
           (-30.0 30.0)
  end
  begin
     id 15 
     name upperneck
     direction 0.0435909 0.997179 -0.0611028   
     length 1.8829   
     axis 0 0 0   XYZ
    dof rx ry rz
    limits (-20.0 45.0)
           (-30.0 30.0)
           (-30.0 30.0)
  end
  begin
     id 16
     name head
     direction 0.0175076 0.999444 -0.0283782  
     length 1.93197  
     axis 0 0 0   XYZ
    dof rx ry rz
    limits (-20.0 45.0)
           (-30.0 30.0)
           (-30.0 30.0)
  end
  begin
     id 17 
     name lclavicle
     direction 0.919164 0.389875 0.0559876  
     length 3.60004  
     axis 0 0 0   XYZ
    dof ry rz
    limits (-20.0 10.0)
           (0.0 20.0)
  end
  begin
     id 18 
     name lhumerus
     direction 1 -4.48958e-011 6.89191e-027   
     length 5.43301   
     axis 180 -30 -90   XYZ
    dof rx ry rz
    limits (-60.0 90.0)
           (-90.0 90.0)
           (-90.0 90.0)
  end
  begin
     id 19
     name lradius
     direction 1 -4.4897e-011 3.24727e-027   
     length 3.15936   
     axis 180 -30 -90   XYZ
    dof rx
    limits (-10.0 170.0)
  end
  begin
     id 20
     name lwrist
     direction 1 -4.4897e-011 9.00228e-027   
     length 1.57968   
     axis -6.29373e-015 90 90   XYZ
    dof ry
    limits (-180.0 0.0)
 end
  begin
     id 21 
     name lhand
     direction 1 -4.48968e-011 1.80042e-026   
     length 0.712827   
     axis -1.14882e-014 90 90   XYZ
    dof rx rz
    limits (-90.0 90.0)
           (-45.0 45.0)
  end
  begin
     id 22 
     name lfingers
     direction 1 -4.49019e-011 3.60267e-026   
     length 0.574699   
     axis -2.29769e-014 90 90   XYZ
    dof rx
    limits (0.0 90.0)
  end
  begin
     id 23
     name lthumb
     direction 0.707107 -6.3498e-011 0.707107   
     length 0.825157   
     axis -90 45 5.37419e-014   XYZ
    dof rx rz
    limits (-45.0 45.0)
           (-45.0 45.0)
  end
  begin
     id 24 
     name rclavicle
     direction -0.890334 0.455305 -0.00132111   
     length 3.51494  
     axis 0 0 0   XYZ 
    dof ry rz
    limits (-10.0 20.0)
           (-20.0 0.0)
  end
  begin
     id 25 
     name rhumerus
     direction -1 -4.48967e-011 5.07175e-028  
     length 5.34194   
     axis 180 30 90   XYZ
    dof rx ry rz
    limits (-90.0 60.0)
           (-90.0 90.0)
           (-90.0 90.0)
  end
  begin
     id 26 
     name rradius
     direction -1 -4.48955e-011 3.30467e-027   
     length 3.19351   
     axis 180 30 90   XYZ
    dof rx
    limits (-10.0 170.0)
  end
  begin
     id 27 
     name rwrist
     direction -1 -4.48968e-011 9.00208e-027   
     length 1.59676   
     axis -6.29373e-015 -90 -90   XYZ
    dof ry
    limits (-180.0 0.0)
  end
  begin
     id 28
     name rhand
     direction -1 -4.49e-011 1.80099e-026   
     length 0.743862   
     axis -1.14882e-014 -90 -90   XYZ
    dof rx rz
    limits (-90.0 90.0)
           (-45.0 45.0)
  end
  begin
     id 29
     name rfingers
     direction -1 -4.49009e-011 3.6023e-026   
     length 0.599721   
     axis -2.29769e-014 -90 -90   XYZ
    dof rx
    limits (0.0 90.0)
  end
  begin
     id 30
     name rthumb
     direction -0.707107 -6.35025e-011 0.707107   
     length 0.861083   
     axis -90 -45 -5.37419e-014   XYZ
    dof rx rz
    limits (-45.0 45.0)
           (-45.0 45.0)
  end
:hierarchy
  begin
    root lhipjoint rhipjoint lowerback
    lhipjoint lfemur
    lfemur ltibia
    ltibia lfoot
    lfoot ltoes
    rhipjoint rfemur
    rfemur rtibia
    rtibia rfoot
    rfoot rtoes
    lowerback upperback
    upperback thorax
    thorax lowerneck lclavicle rclavicle
    lowerneck upperneck
    upperneck head
    lclavicle lhumerus
    lhumerus lradius
    lradius lwrist
    lwrist lhand lthumb
    lhand lfingers
    rclavicle rhumerus
    rhumerus rradius
    rradius rwrist
    rwrist rhand rthumb
    rhand rfingers
  end

#!OML:ASF H:\Martial Arts Walks\Project 1\Capture day 1\Session 1\male.ASF
:FULLY-SPECIFIED
:DEGREES
692
root -1.25441 13.3304 13.2762 9.14851 30.7819 11.865
lowerback 10.1835 2.98389 -15.3401
upperback -0.390418 2.02371 -1.66607
thorax -6.67793 1.49113 6.48612
lowerneck 1.6629 -12.2276 -12.7678
upperneck 3.46638 -16.8354 10.6836
head 2.74494 -8.44756 4.61082
rclavicle 3.6154e-014 5.56597e-015
rhumerus 8.97719 10.8244 -56.5126
rradius 32.9567
rwrist 18.8219
rhand -7.42816 -14.471
rfingers 7.12502
rthumb 18.459 -43.6152
lclavicle 3.6154e-014 5.56597e-015
lhumerus -68.6609 -20.6876 103.49
lradius 100.967
lwrist 37.833
lhand 9.87648 39.1948
lfingers 7.12502
lthumb 35.0092 65.7487
rfemur -67.7884 -29.8794 7.41862
rtibia 80.8315
rfoot -12.5832 13.9591
rtoes 9.063
lfemur 18.5923 4.23092 -7.7966
ltibia 28.1007
lfoot -19.3917 31.2003
ltoes -28.3209
693
root -1.25078 13.3296 13.2784 9.1439 30.7606 11.8265
lowerback 10.1971 2.98981 -15.3211
upperback -0.393405 2.03155 -1.65431
thorax -6.69047 1.49544 6.48656
lowerneck 1.65578 -12.2343 -12.7537
upperneck 3.45802 -16.8439 10.6992
head 2.74478 -8.45122 4.61253
rclavicle 7.25316e-014 -4.8901e-014
rhumerus 8.99144 10.8121 -56.49
rradius 32.9664
rwrist 18.8175
rhand -7.33709 -14.4741
rfingers 7.12502
rthumb 18.5466 -43.6099
lclavicle 7.25316e-014 -4.8901e-014
lhumerus -68.691 -20.6956 103.52
lradius 100.956
lwrist 37.8284
lhand 9.90455 39.3818
lfingers 7.12502
lthumb 35.0358 65.9295
rfemur -67.81 -29.8617 7.45606
rtibia 80.8398
rfoot -12.5944 13.9663
rtoes 9.02389
lfemur 18.5857 4.22641 -7.79402
ltibia 28.1257
lfoot -19.4012 31.2508
ltoes -28.3977
694
root -1.24731 13.3289 13.2801 9.1462 30.7335 11.795
lowerback 10.2152 2.99711 -15.311
upperback -0.399065 2.03886 -1.64564
thorax -6.70867 1.50025 6.48843
lowerneck 1.64272 -12.2414 -12.7394
upperneck 3.46145 -16.853 10.712
head 2.74889 -8.45496 4.61255
rclavicle 7.93896e-014 -1.68967e-014
rhumerus 9.00693 10.8067 -56.4649
rradius 32.9778
rwrist 18.8022
rhand -7.26977 -14.4784
rfingers 7.12502
rthumb 18.6114 -43.6081
lclavicle 7.93896e-014 -1.68967e-014
lhumerus -68.7197 -20.702 103.542
lradius 100.948
lwrist 37.8447
lhand 9.93285 39.5559
lfingers 7.12502
lthumb 35.0627 66.0973
rfemur -67.839 -29.833 7.48736
rtibia 80.847
rfoot -12.6029 13.9628
rtoes 8.97698
lfemur 18.575 4.21929 -7.80469
ltibia 28.149
lfoot -19.3983 31.3102
ltoes -28.4702
695
root -1.24388 13.3282 13.2813 9.15096 30.7044 11.7712
lowerback 10.2386 3.00481 -15.3095
upperback -0.403603 2.04466 -1.63902
thorax -6.72859 1.50464 6.49293
lowerneck 1.61924 -12.2512 -12.7233
upperneck 3.47856 -16.8649 10.7173
head 2.7583 -8.45989 4.60875
rclavicle -7.98245e-014 2.01766e-014
rhumerus 9.02825 10.8086 -56.4356
rradius 32.9886
rwrist 18.7789
rhand -7.23308 -14.4823
rfingers 7.12502
rthumb 18.6466 -43.6086
lclavicle -7.98245e-014 2.01766e-014
lhumerus -68.747 -20.706 103.556
lradius 100.948
lwrist 37.8752
lhand 9.95548 39.7036
lfingers 7.12502
lthumb 35.0841 66.2399
rfemur -67.866 -29.7977 7.50658
rtibia 80.8543
rfoot -12.6095 13.9519
rtoes 8.9354
lfemur 18.5672 4.21002 -7.82451
ltibia 28.1692
lfoot -19.389 31.3711
ltoes -28.5378
696
root -1.2403 13.3272 13.2821 9.16235 30.679 11.7674
lowerback 10.2722 3.01198 -15.3234
upperback -0.407995 2.04573 -1.63717
thorax -6.75358 1.50751 6.50129
lowerneck 1.59009 -12.2622 -12.7098
upperneck 3.50837 -16.8785 10.7194
head 2.77253 -8.46547 4.60345
rclavicle -7.54015e-014 1.67973e-014
rhumerus 9.05129 10.8195 -56.4012
rradius 32.9997
rwrist 18.7513
rhand -7.21777 -14.4913
rfingers 7.12502
rthumb 18.6614 -43.6161
lclavicle -7.54015e-014 1.67973e-014
lhumerus -68.7752 -20.7093 103.567
lradius 100.952
lwrist 37.9078
lhand 9.97169 39.8106
lfingers 7.12502
lthumb 35.0995 66.3434
rfemur -67.8862 -29.77 7.50028
rtibia 80.8646
rfoot -12.6198 13.9395
rtoes 8.8765
lfemur 18.5645 4.19617 -7.86215
ltibia 28.1828
lfoot -19.3698 31.4316
ltoes -28.6174
